<svg version="1.1" id="Layer_1" xmlns="http://www.w3.org/2000/svg" xmlns:xlink="http://www.w3.org/1999/xlink" x="0px" y="0px"
	 width="100%" viewBox="0 0 265 121" enable-background="new 0 0 265 121" xml:space="preserve">
<path fill="#180518" opacity="1.000000" stroke="none" 
	d="
M190.000000,122.000000 
	C126.666672,122.000000 63.833340,122.000000 1.000008,122.000000 
	C1.000006,81.666672 1.000006,41.333347 1.000003,1.000009 
	C45.166656,1.000000 89.333313,1.000000 133.499969,1.000000 
	C177.666641,1.000000 221.833298,1.000000 266.000000,1.000000 
	C266.000000,41.333321 266.000000,81.666641 266.000000,121.999985 
	C240.833328,122.000000 215.666672,122.000000 190.000000,122.000000 
M213.907150,81.244057 
	C214.037781,81.926994 214.168411,82.609940 214.299026,83.292885 
	C214.719910,83.166817 215.140793,83.040749 215.561676,82.914680 
	C215.252792,82.229965 214.943893,81.545242 214.556808,80.825127 
	C214.556808,80.825127 214.358856,80.861015 213.907150,81.244057 
M186.020706,90.811600 
	C184.429916,91.456017 182.881073,92.262352 181.233871,92.688873 
	C180.105133,92.981148 178.839523,92.744873 177.635101,92.744873 
	C181.254562,95.051819 186.934662,91.846054 188.794098,98.249008 
	C188.505310,95.546494 188.216537,92.843979 187.991135,89.333214 
	C187.679474,87.981163 187.367798,86.629112 187.056137,85.277054 
	C186.446045,85.393585 185.835968,85.510124 185.225876,85.626656 
	C185.518753,87.100845 185.811630,88.575027 186.020706,90.811600 
M135.430618,81.462234 
	C134.365341,86.947754 133.300064,92.433266 132.234772,97.918785 
	C133.005081,98.026337 133.775391,98.133888 134.545700,98.241440 
	C135.026688,92.498863 135.507675,86.756294 136.238144,80.780052 
	C136.245773,80.566620 136.253403,80.353188 136.261032,80.139755 
	C136.189575,80.448174 136.118118,80.756592 135.430618,81.462234 
M235.774445,84.309387 
	C234.773193,81.838020 233.771957,79.366653 232.770721,76.895287 
	C232.249084,76.982330 231.727463,77.069366 231.205826,77.156410 
	C230.812836,80.486717 230.419846,83.817024 230.026855,87.147331 
	C230.458054,87.222458 230.889252,87.297592 231.320435,87.372719 
	C231.728546,85.966309 232.136658,84.559906 232.684814,82.670860 
	C233.541138,84.119644 234.179428,85.199539 234.922058,87.015915 
	C236.430679,90.937691 237.939301,94.859467 239.447922,98.781242 
	C239.922470,98.628067 240.397018,98.474899 240.871567,98.321732 
	C241.063705,96.128036 241.255844,93.934341 241.513321,90.994667 
	C240.250259,92.024330 239.740921,92.439552 239.157928,92.914818 
	C238.031784,90.204781 236.959091,87.623344 235.774445,84.309387 
M151.584290,97.907227 
	C152.636383,97.009773 153.688477,96.112312 154.740570,95.214859 
	C154.365341,94.800491 153.990097,94.386131 153.614868,93.971764 
	C152.382935,95.035263 151.151001,96.098755 149.081985,97.188530 
	C145.506302,97.327492 144.435944,95.328484 144.744934,92.128708 
	C145.063354,88.831375 145.362335,85.532158 145.984314,81.652962 
	C147.905701,80.551010 149.827087,79.449066 151.748459,78.347115 
	C152.540695,80.262657 153.454407,82.140289 154.069580,84.111099 
	C154.342468,84.985443 154.012161,86.048065 153.528458,87.552673 
	C153.699234,88.843582 153.869995,90.134499 154.040771,91.425407 
	C154.566483,91.396988 155.092194,91.368576 155.617920,91.340157 
	C155.726013,89.844650 155.834106,88.349152 155.905441,85.992729 
	C155.988373,84.838066 156.089371,83.684372 156.150833,82.528564 
	C156.337585,79.016342 154.772003,76.406281 151.243393,76.364693 
	C147.762558,76.323669 144.328110,77.409645 143.916397,82.822403 
	C143.548676,86.081398 142.989151,89.332565 142.855652,92.601135 
	C142.622620,98.305939 145.345200,100.063026 151.584290,97.907227 
M99.873955,91.633705 
	C99.369911,92.937363 98.865875,94.241028 98.054321,96.340050 
	C103.186760,93.439224 107.505341,92.183563 110.604988,98.133698 
	C110.091454,93.940948 109.577919,89.748207 109.084862,85.406555 
	C109.084862,85.406555 109.083679,85.256241 108.928169,84.424271 
	C108.385918,81.936600 107.843674,79.448929 107.301422,76.961258 
	C106.759781,76.869232 106.218147,76.777206 105.676506,76.685188 
	C103.850533,81.464722 102.024559,86.244255 99.873955,91.633705 
M115.400833,85.413818 
	C114.837784,87.573441 113.719711,89.771111 113.864426,91.882217 
	C114.015656,94.088341 114.839096,97.351532 116.357841,98.074387 
	C118.152740,98.928680 121.007042,97.557129 123.986267,96.749619 
	C125.442406,90.396225 126.898544,84.042824 128.354675,77.689423 
	C127.627495,77.546265 126.900307,77.403107 126.173119,77.259949 
	C125.760880,80.060242 125.538155,82.905258 124.890366,85.649956 
	C123.998703,89.427986 122.785652,93.130165 120.896820,96.974533 
	C116.821388,97.708748 115.438606,95.734047 115.720619,91.936699 
	C115.891983,89.629295 115.898560,87.309654 115.971573,84.910362 
	C115.971573,84.910362 116.003128,85.020851 115.400833,85.413818 
M222.245529,94.870773 
	C220.190781,95.522995 217.963165,96.938202 216.149307,96.527229 
	C215.140427,96.298653 214.710770,93.053696 214.229935,91.116096 
	C213.909760,89.825905 213.960007,88.443779 213.844452,87.102806 
	C212.920639,91.010986 210.215530,95.386406 214.875763,98.274475 
	C217.880508,100.136574 220.951767,99.219147 223.563736,95.543251 
	C224.276810,91.662880 225.436295,87.793671 225.533646,83.897919 
	C225.590988,81.602287 224.591034,78.263924 222.923279,77.218567 
	C221.146576,76.104927 218.021393,77.142662 215.484955,77.241112 
	C215.510483,77.766693 215.536026,78.292282 215.561554,78.817871 
	C216.165787,78.817871 216.789917,78.917946 217.371170,78.802338 
	C222.992233,77.684372 224.245056,78.867805 223.628983,84.522972 
	C223.271072,87.808380 223.129913,91.117416 222.245529,94.870773 
M123.600845,76.252151 
	C125.232597,75.497101 126.855400,74.121651 128.497696,74.097984 
	C134.533371,74.010994 140.694824,75.182816 146.578522,74.316330 
	C151.539749,73.585709 155.386993,73.737823 157.913895,77.087097 
	C159.564529,75.926872 161.516891,73.753693 162.354431,74.121193 
	C164.562958,75.090248 166.287506,77.162254 167.887909,78.525238 
	C169.820358,77.270226 172.380966,75.607254 174.941574,73.944275 
	C176.147568,75.925392 177.353561,77.906517 178.840179,80.348625 
	C179.342911,79.574509 180.210846,78.678383 180.565750,77.611580 
	C181.779099,73.964401 183.966324,72.910248 187.441452,74.636841 
	C187.951141,74.890091 188.510849,75.283401 189.024734,75.251083 
	C195.664932,74.833572 202.296936,74.190773 208.941650,74.020622 
	C210.252945,73.987045 211.609192,75.710060 213.078735,76.714592 
	C218.847595,72.365730 222.553055,72.448151 226.935867,76.425301 
	C229.608521,75.498138 232.208252,73.681740 233.508606,74.359253 
	C235.465103,75.378616 236.512314,78.143150 237.428101,79.435043 
	C239.395508,77.514809 241.248215,75.706520 243.100906,73.898224 
	C244.456696,75.539497 245.812469,77.180763 247.907013,79.716354 
	C248.571930,77.393173 249.842499,74.973717 249.867615,72.541412 
	C250.043060,55.549526 249.974930,38.554966 249.954147,21.561304 
	C249.945953,14.856875 248.111725,13.058657 241.309036,13.051525 
	C224.815170,13.034232 208.321274,13.035565 191.827408,13.050200 
	C184.383438,13.056806 182.819809,14.645418 182.813431,22.157705 
	C182.802368,35.152870 182.837784,48.148205 182.763840,61.142956 
	C182.757172,62.314518 182.263504,63.584827 181.644653,64.593788 
	C181.440750,64.926247 179.570053,64.826851 179.423248,64.496964 
	C178.913147,63.350639 178.618317,62.017868 178.609772,60.753521 
	C178.547989,51.627693 178.576645,42.501251 178.576645,33.235390 
	C173.151337,33.235390 168.248077,33.235390 162.727264,33.235390 
	C162.727264,43.866180 162.727264,54.239269 162.727264,64.806030 
	C145.124512,64.806030 128.141602,64.763596 111.159256,64.840973 
	C107.660500,64.856911 107.050789,62.990784 107.078232,60.068172 
	C107.161133,51.238899 107.250130,42.404938 107.039688,33.579884 
	C106.948845,29.770571 108.442970,28.702536 112.044846,28.748524 
	C124.205017,28.903776 136.368393,28.807970 148.530548,28.808134 
	C151.812164,28.808178 155.093765,28.808140 158.756470,28.808140 
	C158.756470,25.253988 158.949478,22.274923 158.709717,19.331104 
	C158.377625,15.253515 156.114960,13.030589 151.838974,13.036999 
	C134.012299,13.063720 116.185493,13.021090 98.358948,13.075851 
	C94.271225,13.088409 91.591492,15.091837 91.573936,19.400906 
	C91.499985,37.560318 91.503098,55.720383 91.582016,73.879761 
	C91.596214,77.146950 92.987549,79.616722 96.647293,80.279778 
	C99.934181,80.875275 101.858871,79.929710 103.024460,76.568390 
	C103.447235,75.349174 105.696060,74.138931 107.138611,74.106064 
	C108.187767,74.082153 109.444649,75.882851 110.299324,77.089371 
	C110.904198,77.943237 110.991531,79.163727 111.749733,81.680634 
	C113.227547,77.753914 112.644371,72.721214 117.452606,74.181129 
	C119.023842,74.658195 119.791107,77.783180 121.499252,80.663834 
	C122.116524,79.483788 122.740974,78.290016 123.600845,76.252151 
M37.508381,80.388359 
	C51.496044,80.387787 65.483704,80.387794 79.471367,80.386276 
	C83.253624,80.385864 86.987328,79.623375 87.092239,75.086426 
	C87.367783,63.169636 87.185295,51.242260 87.185295,38.796619 
	C69.802277,38.796619 52.916054,38.796619 35.990162,38.796619 
	C35.919136,37.274803 35.841919,36.281319 35.831367,35.287128 
	C35.762711,28.815874 35.767441,28.812887 42.472778,28.807310 
	C47.967964,28.802742 53.463161,28.806221 58.958351,28.806202 
	C68.239815,28.806170 77.521271,28.806194 87.205147,28.806194 
	C87.205147,25.163622 87.366783,22.025984 87.163338,18.912199 
	C86.920891,15.201421 84.741837,13.089489 80.999207,13.079101 
	C62.848667,13.028722 44.697693,13.017943 26.547377,13.102008 
	C22.955654,13.118642 20.223841,15.046023 20.158382,18.769867 
	C19.951395,30.545000 20.081963,42.326065 20.081963,54.621284 
	C37.378960,54.621284 54.285480,54.621284 71.092430,54.621284 
	C72.736198,64.235878 72.297249,64.805481 63.735596,64.805328 
	C60.738220,64.805275 57.740841,64.805283 54.743465,64.805283 
	C43.307381,64.805283 31.871294,64.805283 20.047562,64.805283 
	C20.047562,68.109558 19.955990,70.906044 20.068619,73.694283 
	C20.245930,78.083740 22.518297,80.413696 27.022144,80.386330 
	C30.185902,80.367104 33.349895,80.386330 37.508381,80.388359 
M175.939056,13.089500 
	C172.960785,13.071549 169.980133,13.121379 167.004913,13.016606 
	C164.022781,12.911592 163.024811,14.311421 162.874420,17.206175 
	C162.281189,28.623661 163.808731,30.175369 175.034180,28.656527 
	C176.178696,28.501669 178.175293,27.484360 178.147766,26.951376 
	C177.911789,22.381550 177.300354,17.831114 175.939056,13.089500 
M163.159714,77.231079 
	C162.531952,79.060890 160.879608,81.421082 161.493988,82.607895 
	C162.698792,84.935310 165.166046,86.609192 167.529831,88.972397 
	C168.456741,87.150528 169.404053,85.288544 170.351379,83.426559 
	C170.025543,83.202560 169.699707,82.978554 169.373871,82.754547 
	C168.755783,83.711914 168.137680,84.669273 167.182770,86.148315 
	C165.824875,82.858353 164.768250,80.298325 163.159714,77.231079 
M183.522156,83.783089 
	C186.394791,81.910995 186.563431,79.476952 183.923737,76.271423 
	C182.220978,80.777573 180.518219,85.283730 178.815475,89.789879 
	C179.238007,89.968376 179.660522,90.146873 180.083054,90.325371 
	C181.109238,88.352470 182.135406,86.379570 183.522156,83.783089 
M173.585571,88.257339 
	C173.585571,86.660202 173.585571,85.063057 173.585571,83.465919 
	C173.134262,83.470573 172.682953,83.475235 172.231628,83.479897 
	C171.714600,88.300194 171.197556,93.120499 170.680511,97.940796 
	C171.218124,98.010239 171.755722,98.079681 172.293320,98.149124 
	C172.666840,95.128586 173.040359,92.108055 173.585571,88.257339 
z"/>
<path fill="#D2CED6" opacity="1.000000" stroke="none" 
	d="
M123.483139,76.674194 
	C122.740974,78.290016 122.116524,79.483788 121.499252,80.663834 
	C119.791107,77.783180 119.023842,74.658195 117.452606,74.181129 
	C112.644371,72.721214 113.227547,77.753914 111.749733,81.680634 
	C110.991531,79.163727 110.904198,77.943237 110.299324,77.089371 
	C109.444649,75.882851 108.187767,74.082153 107.138611,74.106064 
	C105.696060,74.138931 103.447235,75.349174 103.024460,76.568390 
	C101.858871,79.929710 99.934181,80.875275 96.647293,80.279778 
	C92.987549,79.616722 91.596214,77.146950 91.582016,73.879761 
	C91.503098,55.720383 91.499985,37.560318 91.573936,19.400906 
	C91.591492,15.091837 94.271225,13.088409 98.358948,13.075851 
	C116.185493,13.021090 134.012299,13.063720 151.838974,13.036999 
	C156.114960,13.030589 158.377625,15.253515 158.709717,19.331104 
	C158.949478,22.274923 158.756470,25.253988 158.756470,28.808140 
	C155.093765,28.808140 151.812164,28.808178 148.530548,28.808134 
	C136.368393,28.807970 124.205017,28.903776 112.044846,28.748524 
	C108.442970,28.702536 106.948845,29.770571 107.039688,33.579884 
	C107.250130,42.404938 107.161133,51.238899 107.078232,60.068172 
	C107.050789,62.990784 107.660500,64.856911 111.159256,64.840973 
	C128.141602,64.763596 145.124512,64.806030 162.727264,64.806030 
	C162.727264,54.239269 162.727264,43.866180 162.727264,33.235390 
	C168.248077,33.235390 173.151337,33.235390 178.576645,33.235390 
	C178.576645,42.501251 178.547989,51.627693 178.609772,60.753521 
	C178.618317,62.017868 178.913147,63.350639 179.423248,64.496964 
	C179.570053,64.826851 181.440750,64.926247 181.644653,64.593788 
	C182.263504,63.584827 182.757172,62.314518 182.763840,61.142956 
	C182.837784,48.148205 182.802368,35.152870 182.813431,22.157705 
	C182.819809,14.645418 184.383438,13.056806 191.827408,13.050200 
	C208.321274,13.035565 224.815170,13.034232 241.309036,13.051525 
	C248.111725,13.058657 249.945953,14.856875 249.954147,21.561304 
	C249.974930,38.554966 250.043060,55.549526 249.867615,72.541412 
	C249.842499,74.973717 248.571930,77.393173 247.907013,79.716354 
	C245.812469,77.180763 244.456696,75.539497 243.100922,73.898224 
	C241.248215,75.706520 239.395508,77.514809 237.428101,79.435043 
	C236.512314,78.143150 235.465103,75.378616 233.508606,74.359253 
	C232.208252,73.681740 229.608521,75.498138 226.935867,76.425301 
	C222.553055,72.448151 218.847595,72.365730 213.078735,76.714592 
	C211.609192,75.710060 210.252945,73.987045 208.941650,74.020622 
	C202.296936,74.190773 195.664932,74.833572 189.024734,75.251083 
	C188.510849,75.283401 187.951141,74.890091 187.441452,74.636841 
	C183.966324,72.910248 181.779099,73.964401 180.565750,77.611580 
	C180.210846,78.678383 179.342911,79.574509 178.840179,80.348625 
	C177.353561,77.906517 176.147568,75.925392 174.941574,73.944275 
	C172.380966,75.607254 169.820358,77.270226 167.887909,78.525238 
	C166.287506,77.162254 164.562958,75.090248 162.354431,74.121193 
	C161.516891,73.753693 159.564529,75.926872 157.913895,77.087097 
	C155.386993,73.737823 151.539749,73.585709 146.578522,74.316330 
	C140.694824,75.182816 134.533371,74.010994 128.497696,74.097984 
	C126.855400,74.121651 125.232597,75.497101 123.483139,76.674194 
M207.584473,28.803551 
	C206.418747,28.803501 205.232040,28.946232 204.090942,28.778553 
	C199.290375,28.073132 198.104553,30.352106 198.257462,34.794724 
	C198.543686,43.111446 198.434265,51.446590 198.295868,59.770847 
	C198.237579,63.276806 199.268906,64.958839 203.123291,64.872643 
	C211.945023,64.675354 220.775772,64.714752 229.599564,64.859283 
	C233.008499,64.915115 234.344757,63.752239 234.273727,60.228661 
	C234.092514,51.239601 234.079269,42.241604 234.275253,33.253212 
	C234.354080,29.637356 232.902847,28.664051 229.546143,28.749617 
	C222.556381,28.927794 215.558884,28.803530 207.584473,28.803551 
z"/>
<path fill="#D3CFD7" opacity="1.000000" stroke="none" 
	d="
M37.011082,80.388374 
	C33.349895,80.386330 30.185902,80.367104 27.022144,80.386330 
	C22.518297,80.413696 20.245930,78.083740 20.068619,73.694283 
	C19.955990,70.906044 20.047562,68.109558 20.047562,64.805283 
	C31.871294,64.805283 43.307381,64.805283 54.743465,64.805283 
	C57.740841,64.805283 60.738220,64.805275 63.735596,64.805328 
	C72.297249,64.805481 72.736198,64.235878 71.092430,54.621284 
	C54.285480,54.621284 37.378960,54.621284 20.081963,54.621284 
	C20.081963,42.326065 19.951395,30.545000 20.158382,18.769867 
	C20.223841,15.046023 22.955654,13.118642 26.547377,13.102008 
	C44.697693,13.017943 62.848667,13.028722 80.999207,13.079101 
	C84.741837,13.089489 86.920891,15.201421 87.163338,18.912199 
	C87.366783,22.025984 87.205147,25.163622 87.205147,28.806194 
	C77.521271,28.806194 68.239815,28.806170 58.958351,28.806202 
	C53.463161,28.806221 47.967964,28.802742 42.472778,28.807310 
	C35.767441,28.812887 35.762711,28.815874 35.831367,35.287128 
	C35.841919,36.281319 35.919136,37.274803 35.990162,38.796619 
	C52.916054,38.796619 69.802277,38.796619 87.185295,38.796619 
	C87.185295,51.242260 87.367783,63.169636 87.092239,75.086426 
	C86.987328,79.623375 83.253624,80.385864 79.471367,80.386276 
	C65.483704,80.387794 51.496044,80.387787 37.011082,80.388374 
z"/>
<path fill="#C40F35" opacity="1.000000" stroke="none" 
	d="
M176.370087,13.182192 
	C177.300354,17.831114 177.911789,22.381550 178.147766,26.951376 
	C178.175293,27.484360 176.178696,28.501669 175.034180,28.656527 
	C163.808731,30.175369 162.281189,28.623661 162.874420,17.206175 
	C163.024811,14.311421 164.022781,12.911592 167.004913,13.016606 
	C169.980133,13.121379 172.960785,13.071549 176.370087,13.182192 
z"/>
<path fill="#A70E2F" opacity="1.000000" stroke="none" 
	d="
M222.891235,94.415817 
	C223.129913,91.117416 223.271072,87.808380 223.628983,84.522972 
	C224.245056,78.867805 222.992233,77.684372 217.371170,78.802338 
	C216.789917,78.917946 216.165787,78.817871 215.561554,78.817871 
	C215.536026,78.292282 215.510483,77.766693 215.484955,77.241112 
	C218.021393,77.142662 221.146576,76.104927 222.923279,77.218567 
	C224.591034,78.263924 225.590988,81.602287 225.533646,83.897919 
	C225.436295,87.793671 224.276810,91.662880 223.258347,95.397285 
	C222.932388,94.972824 222.911819,94.694321 222.891235,94.415817 
z"/>
<path fill="#29041A" opacity="1.000000" stroke="none" 
	d="
M109.083679,85.256241 
	C109.083679,85.256241 109.084862,85.406555 108.682404,85.709274 
	C108.043915,88.079445 107.807884,90.146889 107.432617,93.433876 
	C105.282410,92.536186 103.481415,91.784286 101.848740,90.693428 
	C103.208458,87.423164 104.399849,84.491859 105.550087,81.661804 
	C106.931007,83.066505 108.007339,84.161377 109.083679,85.256241 
z"/>
<path fill="#AA0E31" opacity="1.000000" stroke="none" 
	d="
M163.435669,77.484680 
	C164.768250,80.298325 165.824875,82.858353 167.182770,86.148315 
	C168.137680,84.669273 168.755783,83.711914 169.373871,82.754547 
	C169.699707,82.978554 170.025543,83.202560 170.351379,83.426559 
	C169.404053,85.288544 168.456741,87.150528 167.529831,88.972397 
	C165.166046,86.609192 162.698792,84.935310 161.493988,82.607895 
	C160.879608,81.421082 162.531952,79.060890 163.435669,77.484680 
z"/>
<path fill="#A60E33" opacity="1.000000" stroke="none" 
	d="
M153.955688,87.025223 
	C154.012161,86.048065 154.342468,84.985443 154.069580,84.111099 
	C153.454407,82.140289 152.540695,80.262657 151.748459,78.347122 
	C149.827087,79.449066 147.905701,80.551010 145.437592,81.880615 
	C144.631317,82.073914 144.371765,82.039558 144.112213,82.005211 
	C144.328110,77.409645 147.762558,76.323669 151.243393,76.364693 
	C154.772003,76.406281 156.337585,79.016342 156.150833,82.528564 
	C156.089371,83.684372 155.988373,84.838066 155.598938,86.501785 
	C154.846848,87.015633 154.401260,87.020432 153.955688,87.025223 
z"/>
<path fill="#A50E30" opacity="1.000000" stroke="none" 
	d="
M121.710297,96.864845 
	C122.785652,93.130165 123.998703,89.427986 124.890366,85.649956 
	C125.538155,82.905258 125.760880,80.060242 126.173119,77.259949 
	C126.900307,77.403107 127.627495,77.546265 128.354675,77.689423 
	C126.898544,84.042824 125.442406,90.396225 123.270683,96.879158 
	C122.273499,96.960754 121.991898,96.912804 121.710297,96.864845 
z"/>
<path fill="#A50E30" opacity="1.000000" stroke="none" 
	d="
M121.303558,96.919693 
	C121.991898,96.912804 122.273499,96.960754 122.978600,97.079582 
	C121.007042,97.557129 118.152740,98.928680 116.357841,98.074387 
	C114.839096,97.351532 114.015656,94.088341 113.864426,91.882217 
	C113.719711,89.771111 114.837784,87.573441 115.696579,85.210480 
	C115.992317,85.007141 115.979164,84.995506 115.979164,84.995506 
	C115.898560,87.309654 115.891983,89.629295 115.720619,91.936699 
	C115.438606,95.734047 116.821388,97.708748 121.303558,96.919693 
z"/>
<path fill="#2E051A" opacity="1.000000" stroke="none" 
	d="
M183.341858,84.094879 
	C182.135406,86.379570 181.109238,88.352470 180.083054,90.325371 
	C179.660522,90.146873 179.238007,89.968376 178.815475,89.789879 
	C180.518219,85.283730 182.220978,80.777573 183.923737,76.271423 
	C186.563431,79.476952 186.394791,81.910995 183.341858,84.094879 
z"/>
<path fill="#B50E33" opacity="1.000000" stroke="none" 
	d="
M101.680420,91.032387 
	C103.481415,91.784286 105.282410,92.536186 107.432617,93.433876 
	C107.807884,90.146889 108.043915,88.079445 108.672165,85.783730 
	C109.577919,89.748207 110.091454,93.940948 110.604988,98.133698 
	C107.505341,92.183563 103.186760,93.439224 98.054321,96.340050 
	C98.865875,94.241028 99.369911,92.937363 100.283203,91.330078 
	C101.021759,91.030006 101.351082,91.031982 101.680420,91.032387 
z"/>
<path fill="#A80E30" opacity="1.000000" stroke="none" 
	d="
M144.014313,82.413803 
	C144.371765,82.039558 144.631317,82.073914 145.280365,82.171021 
	C145.362335,85.532158 145.063354,88.831375 144.744934,92.128708 
	C144.435944,95.328484 145.506302,97.327492 149.609283,97.376755 
	C150.330658,97.822647 150.586960,97.976898 150.905502,98.027718 
	C145.345200,100.063026 142.622620,98.305939 142.855652,92.601135 
	C142.989151,89.332565 143.548676,86.081398 144.014313,82.413803 
z"/>
<path fill="#A80E33" opacity="1.000000" stroke="none" 
	d="
M101.848740,90.693428 
	C101.351082,91.031982 101.021759,91.030006 100.445518,91.025116 
	C102.024559,86.244255 103.850533,81.464722 105.676506,76.685188 
	C106.218147,76.777206 106.759781,76.869232 107.301422,76.961258 
	C107.843674,79.448929 108.385918,81.936600 109.005920,84.840256 
	C108.007339,84.161377 106.931007,83.066505 105.550087,81.661804 
	C104.399849,84.491859 103.208458,87.423164 101.848740,90.693428 
z"/>
<path fill="#AF0F33" opacity="1.000000" stroke="none" 
	d="
M222.568390,94.643295 
	C222.911819,94.694321 222.932388,94.972824 222.991486,95.668549 
	C220.951767,99.219147 217.880508,100.136574 214.875763,98.274475 
	C210.215530,95.386406 212.920639,91.010986 213.844452,87.102806 
	C213.960007,88.443779 213.909760,89.825905 214.229935,91.116096 
	C214.710770,93.053696 215.140427,96.298653 216.149307,96.527229 
	C217.963165,96.938202 220.190781,95.522995 222.568390,94.643295 
z"/>
<path fill="#B30E35" opacity="1.000000" stroke="none" 
	d="
M235.886398,85.041916 
	C236.959091,87.623344 238.031784,90.204781 239.157928,92.914818 
	C239.740921,92.439552 240.250259,92.024330 241.513321,90.994667 
	C241.255844,93.934341 241.063705,96.128036 240.871567,98.321732 
	C240.397018,98.474899 239.922470,98.628067 239.447922,98.781242 
	C237.939301,94.859467 236.430679,90.937691 235.017670,86.415169 
	C235.370987,85.556915 235.628693,85.299416 235.886398,85.041916 
z"/>
<path fill="#A40E31" opacity="1.000000" stroke="none" 
	d="
M135.988663,81.013718 
	C135.507675,86.756294 135.026688,92.498863 134.545700,98.241440 
	C133.775391,98.133888 133.005081,98.026337 132.234772,97.918785 
	C133.300064,92.433266 134.365341,86.947754 135.726349,81.247528 
	C136.022095,81.032822 135.988663,81.013718 135.988663,81.013718 
z"/>
<path fill="#A50F32" opacity="1.000000" stroke="none" 
	d="
M235.830414,84.675652 
	C235.628693,85.299416 235.370987,85.556915 234.965500,86.046928 
	C234.179428,85.199539 233.541138,84.119644 232.684814,82.670860 
	C232.136658,84.559906 231.728546,85.966309 231.320435,87.372719 
	C230.889252,87.297592 230.458054,87.222458 230.026855,87.147331 
	C230.419846,83.817024 230.812836,80.486717 231.205826,77.156410 
	C231.727463,77.069366 232.249084,76.982330 232.770721,76.895287 
	C233.771957,79.366653 234.773193,81.838020 235.830414,84.675652 
z"/>
<path fill="#A80E2F" opacity="1.000000" stroke="none" 
	d="
M173.499725,88.672424 
	C173.040359,92.108055 172.666840,95.128586 172.293320,98.149124 
	C171.755722,98.079681 171.218124,98.010239 170.680511,97.940796 
	C171.197556,93.120499 171.714600,88.300194 172.231628,83.479897 
	C172.682953,83.475235 173.134262,83.470573 173.585571,83.465919 
	C173.585571,85.063057 173.585571,86.660202 173.499725,88.672424 
z"/>
<path fill="#AF0E31" opacity="1.000000" stroke="none" 
	d="
M187.927765,90.141464 
	C188.216537,92.843979 188.505310,95.546494 188.794098,98.249008 
	C186.934662,91.846054 181.254562,95.051819 177.635101,92.744873 
	C178.839523,92.744873 180.105133,92.981148 181.233871,92.688873 
	C182.881073,92.262352 184.429916,91.456017 186.368149,90.415207 
	C187.119644,90.059700 187.523712,90.100586 187.927765,90.141464 
z"/>
<path fill="#2E051A" opacity="1.000000" stroke="none" 
	d="
M187.959442,89.737343 
	C187.523712,90.100586 187.119644,90.059700 186.410049,90.034019 
	C185.811630,88.575027 185.518753,87.100845 185.225876,85.626656 
	C185.835968,85.510124 186.446045,85.393585 187.056137,85.277054 
	C187.367798,86.629112 187.679474,87.981163 187.959442,89.737343 
z"/>
<path fill="#1D0418" opacity="1.000000" stroke="none" 
	d="
M153.742065,87.288948 
	C154.401260,87.020432 154.846848,87.015633 155.617310,86.932243 
	C155.834106,88.349152 155.726013,89.844650 155.617920,91.340157 
	C155.092194,91.368576 154.566483,91.396988 154.040771,91.425407 
	C153.869995,90.134499 153.699234,88.843582 153.742065,87.288948 
z"/>
<path fill="#1D0418" opacity="1.000000" stroke="none" 
	d="
M151.244904,97.967468 
	C150.586960,97.976898 150.330658,97.822647 150.027832,97.363617 
	C151.151001,96.098755 152.382935,95.035263 153.614868,93.971764 
	C153.990097,94.386131 154.365341,94.800491 154.740570,95.214859 
	C153.688477,96.112312 152.636383,97.009773 151.244904,97.967468 
z"/>
<path fill="#1B0317" opacity="1.000000" stroke="none" 
	d="
M214.635010,80.860527 
	C214.943893,81.545242 215.252792,82.229965 215.561676,82.914680 
	C215.140793,83.040749 214.719910,83.166817 214.299026,83.292885 
	C214.168411,82.609940 214.037781,81.926994 214.200882,81.021332 
	C214.494614,80.798607 214.635010,80.860527 214.635010,80.860527 
z"/>
<path fill="#A40E31" opacity="1.000000" stroke="none" 
	d="
M136.034363,81.048912 
	C136.118118,80.756592 136.189575,80.448174 136.261032,80.139755 
	C136.253403,80.353188 136.245773,80.566620 136.113403,80.896881 
	C135.988663,81.013718 136.022095,81.032822 136.034363,81.048912 
z"/>
<path fill="#A50E30" opacity="1.000000" stroke="none" 
	d="
M115.997726,85.013992 
	C116.003128,85.020851 115.971573,84.910362 115.975372,84.952934 
	C115.979164,84.995506 115.992317,85.007141 115.997726,85.013992 
z"/>
<path fill="#A70E2F" opacity="1.000000" stroke="none" 
	d="
M214.595917,80.842827 
	C214.635010,80.860527 214.494614,80.798607 214.426727,80.829811 
	C214.358856,80.861015 214.556808,80.825127 214.595917,80.842827 
z"/>
<path fill="#180719" opacity="1.000000" stroke="none" 
	d="
M208.074524,28.803551 
	C215.558884,28.803530 222.556381,28.927794 229.546143,28.749617 
	C232.902847,28.664051 234.354080,29.637356 234.275253,33.253212 
	C234.079269,42.241604 234.092514,51.239601 234.273727,60.228661 
	C234.344757,63.752239 233.008499,64.915115 229.599564,64.859283 
	C220.775772,64.714752 211.945023,64.675354 203.123291,64.872643 
	C199.268906,64.958839 198.237579,63.276806 198.295868,59.770847 
	C198.434265,51.446590 198.543686,43.111446 198.257462,34.794724 
	C198.104553,30.352106 199.290375,28.073132 204.090942,28.778553 
	C205.232040,28.946232 206.418747,28.803501 208.074524,28.803551 
z"/>
</svg>