<?xml version="1.0" standalone="no"?>
<!DOCTYPE svg PUBLIC "-//W3C//DTD SVG 20010904//EN"
 "http://www.w3.org/TR/2001/REC-SVG-20010904/DTD/svg10.dtd">
<svg version="1.0" xmlns="http://www.w3.org/2000/svg"
 width="706.000000pt" height="280.000000pt" viewBox="0 0 706.000000 280.000000"
 preserveAspectRatio="xMidYMid meet">

<g transform="translate(0.000000,280.000000) scale(0.100000,-0.100000)"
fill="#000000" stroke="none">
<path d="M485 2468 c-16 -6 -41 -20 -54 -32 -51 -45 -51 -50 -51 -576 l0 -490
691 0 691 0 -4 -116 c-3 -108 -5 -117 -27 -135 -22 -18 -49 -19 -687 -19
l-664 0 0 -142 c0 -164 14 -213 72 -248 32 -20 48 -20 818 -20 728 0 788 1
819 18 19 9 44 30 55 45 20 28 21 41 24 533 l3 504 -686 0 -685 0 0 118 c0
103 3 121 18 135 17 16 79 17 685 17 l667 0 0 147 c0 178 -14 218 -84 252 -42
21 -54 21 -807 20 -505 0 -774 -4 -794 -11z"/>
<path d="M2399 2470 c-43 -13 -76 -39 -93 -75 -14 -29 -16 -121 -16 -812 0
-868 -4 -822 69 -870 28 -19 48 -23 112 -23 l77 0 28 71 c15 39 37 77 48 85
11 8 42 14 69 14 67 0 92 -27 102 -108 6 -56 9 -62 30 -62 21 0 24 6 30 62 10
80 35 108 100 108 36 0 51 -6 72 -26 23 -24 25 -30 19 -85 l-7 -59 44 0 44 0
7 61 c5 44 14 67 30 84 23 23 27 23 263 24 229 1 240 1 261 -20 l23 -20 47 22
c63 31 160 31 217 2 45 -23 65 -44 88 -87 l15 -30 7 44 c10 60 42 90 97 90 55
0 81 -18 101 -72 9 -24 21 -56 27 -72 l11 -30 49 76 c26 42 57 81 68 87 36 19
89 13 119 -13 26 -22 28 -29 25 -85 l-2 -61 29 0 c27 0 31 6 57 71 32 82 52
99 114 99 45 0 82 -20 92 -51 2 -7 16 1 35 20 l31 31 184 0 c127 0 188 -4 196
-12 9 -9 18 -9 37 0 14 7 44 12 66 12 49 0 89 -35 89 -78 l0 -29 45 43 c108
104 288 90 358 -27 l25 -41 7 43 c10 60 42 89 100 89 57 0 78 -20 110 -106 16
-43 28 -60 42 -62 18 -3 22 4 28 50 12 91 35 117 103 118 33 0 49 -6 69 -26
22 -23 25 -32 21 -80 -3 -30 -3 -54 0 -54 20 0 66 42 82 76 20 40 20 58 18
815 -3 753 -4 775 -23 808 -11 19 -33 43 -48 55 -28 21 -33 21 -810 24 l-782
2 -45 -22 c-26 -14 -53 -37 -65 -58 -19 -34 -20 -53 -23 -667 l-3 -633 -54 0
-55 0 0 425 0 425 -210 0 -210 0 0 -425 0 -425 -720 0 -721 0 -24 25 -25 24 0
436 c0 422 1 436 20 455 20 20 33 20 690 20 l670 0 0 139 c0 145 -9 190 -44
230 -46 52 -28 51 -848 50 -420 0 -775 -4 -789 -9z m3686 -433 c13 -18 15 -90
15 -457 0 -239 -4 -440 -8 -446 -21 -32 -53 -34 -481 -34 l-430 0 -20 26 c-21
26 -21 37 -21 458 0 357 2 436 14 452 14 18 33 19 443 24 235 3 438 3 451 1
12 -2 29 -13 37 -24z"/>
<path d="M4217 2462 c-15 -16 -17 -45 -17 -193 0 -123 4 -179 12 -187 8 -8 65
-12 189 -12 148 0 180 3 193 16 13 13 16 44 16 185 0 224 14 209 -208 209
-151 0 -171 -2 -185 -18z"/>
<path d="M6652 2464 c-137 -70 -87 -284 65 -284 94 0 157 61 157 152 0 51 -19
86 -66 121 -36 27 -114 32 -156 11z m150 -53 c29 -26 33 -36 33 -80 0 -41 -5
-55 -29 -80 -35 -36 -74 -46 -121 -31 -45 15 -75 57 -75 107 1 73 41 112 117
113 33 0 50 -6 75 -29z"/>
<path d="M6680 2330 c0 -56 3 -70 15 -70 9 0 15 9 15 25 0 14 4 25 9 25 5 0
12 -11 15 -25 4 -14 13 -25 21 -25 18 0 18 1 5 34 -6 16 -6 27 0 31 14 9 12
49 -2 63 -7 7 -27 12 -45 12 l-33 0 0 -70z m60 25 c0 -8 -7 -15 -15 -15 -8 0
-15 7 -15 15 0 8 7 15 15 15 8 0 15 -7 15 -15z"/>
<path d="M3806 780 c-41 -13 -95 -68 -106 -110 -15 -51 -40 -265 -40 -333 0
-78 19 -111 75 -132 83 -32 184 5 219 80 11 23 26 105 38 213 19 163 20 180 5
214 -8 20 -27 44 -42 54 -31 20 -107 27 -149 14z m127 -50 c15 -12 29 -36 32
-54 7 -33 -19 -280 -36 -346 -21 -87 -132 -130 -196 -76 -17 14 -33 38 -36 52
-6 35 32 331 48 371 28 67 133 96 188 53z"/>
<path d="M5666 780 c-39 -12 -93 -66 -106 -104 -5 -17 -18 -104 -29 -194 -21
-183 -18 -212 30 -258 27 -26 37 -29 92 -29 46 0 71 6 97 22 61 38 77 80 101
272 25 198 21 234 -33 272 -34 25 -106 34 -152 19z m129 -54 c36 -36 39 -64
21 -214 -21 -174 -32 -214 -66 -247 -56 -54 -155 -43 -185 21 -14 31 -14 45 5
195 12 89 27 177 35 195 29 70 140 99 190 50z"/>
<path d="M2554 499 c-60 -155 -111 -285 -113 -291 -2 -5 7 -8 19 -6 16 2 27
18 43 58 l22 55 107 3 107 3 6 -48 c9 -67 12 -73 33 -73 18 0 16 15 -24 288
-23 158 -43 288 -43 290 -1 1 -11 2 -24 2 -21 0 -33 -26 -133 -281z m154 49
c12 -90 22 -171 22 -180 0 -16 -11 -18 -96 -18 -87 0 -96 2 -90 18 51 138 132
342 137 342 3 0 15 -73 27 -162z"/>
<path d="M2905 542 l-29 -239 20 -38 c62 -118 249 -87 293 48 9 26 61 420 61
457 0 5 -8 10 -18 10 -17 0 -21 -24 -46 -222 -15 -123 -35 -238 -43 -255 -33
-70 -139 -98 -188 -49 -13 13 -27 36 -31 51 -3 14 5 121 20 238 31 250 31 237
8 237 -16 0 -21 -26 -47 -238z"/>
<path d="M3316 765 c-4 -12 6 -15 59 -15 35 0 66 -4 70 -10 3 -5 -8 -119 -25
-254 -36 -290 -35 -289 -13 -284 15 3 22 39 50 262 17 142 34 264 37 272 4 10
24 14 76 14 56 0 70 3 70 15 0 13 -24 15 -159 15 -132 0 -160 -3 -165 -15z"/>
<path d="M4160 768 c0 -7 -16 -137 -35 -288 -19 -151 -35 -276 -35 -277 0 -2
9 -3 20 -3 11 0 20 1 20 3 3 43 59 470 62 473 3 2 25 -46 49 -108 24 -61 49
-113 55 -115 7 -2 40 42 74 99 35 57 69 110 77 118 12 13 13 11 8 -15 -2 -17
-14 -109 -25 -205 -11 -96 -23 -192 -26 -212 -5 -34 -3 -38 15 -38 12 0 21 2
21 5 0 10 60 502 66 538 6 36 4 38 -17 35 -18 -2 -43 -34 -103 -131 -53 -87
-81 -124 -87 -116 -4 8 -27 66 -51 131 -37 103 -46 118 -65 118 -13 0 -23 -6
-23 -12z"/>
<path d="M4647 508 c-58 -150 -109 -281 -113 -291 -6 -15 -3 -18 16 -15 19 2
27 15 43 61 l19 57 108 0 109 0 7 -60 c5 -50 10 -60 25 -60 25 0 25 -6 -16
286 -44 311 -40 294 -69 294 -20 0 -32 -25 -129 -272z m151 35 c12 -93 22
-174 22 -180 0 -10 -26 -13 -96 -13 -73 0 -95 3 -92 13 40 109 134 347 138
347 3 0 15 -75 28 -167z"/>
<path d="M4956 765 c-4 -12 6 -15 59 -15 35 0 66 -4 70 -9 3 -6 -8 -120 -25
-256 -36 -291 -35 -288 -12 -283 15 3 21 39 49 262 18 143 34 265 37 273 4 9
26 13 76 13 56 0 70 3 70 15 0 13 -24 15 -159 15 -132 0 -160 -3 -165 -15z"/>
<path d="M5361 508 c-18 -150 -35 -281 -37 -290 -4 -13 0 -18 15 -18 13 0 22
8 25 23 6 26 66 526 66 545 0 6 -8 12 -18 12 -16 0 -21 -30 -51 -272z"/>
<path d="M6020 768 c0 -16 -57 -478 -66 -530 -5 -34 -3 -38 15 -38 12 0 21 3
21 8 1 26 59 464 62 467 2 2 35 -80 72 -183 38 -103 77 -211 88 -240 16 -44
24 -53 41 -50 21 3 23 16 54 263 38 313 39 318 16 313 -18 -3 -19 -7 -63 -376
-7 -57 -15 -101 -17 -98 -3 3 -44 110 -92 238 -75 202 -89 233 -109 236 -13 2
-22 -2 -22 -10z"/>
</g>
</svg>
