<svg xmlns="http://www.w3.org/2000/svg" viewBox="0 0 620 230" width="620" height="230">
  <g fill="#dfd9ea">
    <!-- S -->
    <rect x="20" y="24" width="145" height="30" rx="6"/>
    <rect x="20" y="77" width="145" height="30" rx="6"/>
    <rect x="20" y="130" width="145" height="30" rx="6"/>
    <rect x="20" y="24" width="32" height="53" rx="6"/>
    <rect x="133" y="77" width="32" height="53" rx="6"/>

    <!-- C -->
    <rect x="184" y="24" width="145" height="30" rx="6"/>
    <rect x="184" y="24" width="32" height="136" rx="6"/>
    <rect x="184" y="130" width="145" height="30" rx="6"/>

    <!-- I -->
    <rect x="350" y="24" width="32" height="136" rx="6"/>
  </g>

  <!-- O -->
  <path
    fill="#dfd9ea"
    fill-rule="evenodd"
    d="M404 24h166v136H404zM438 58h98v68h-98z"
  />

  <!-- Accent -->
  <rect x="383" y="18" width="22" height="22" rx="3" fill="#ce0037"/>

  <!-- AUTOMATION -->
  <text
    x="430"
    y="198"
    text-anchor="middle"
    font-family="'Barlow Condensed', 'Arial Narrow', Arial, sans-serif"
    font-size="52"
    font-style="italic"
    letter-spacing="1.1"
    fill="#ce0037"
  >
    AUTOMATION
  </text>
</svg>
