<svg xmlns="http://www.w3.org/2000/svg" viewBox="0 0 640 235" width="640" height="235">
  <defs>
    <linearGradient id="scioFill" x1="0%" y1="0%" x2="0%" y2="100%">
      <stop offset="0%" stop-color="#f3eff8"/>
      <stop offset="100%" stop-color="#d8d1e7"/>
    </linearGradient>
  </defs>

  <!-- S -->
  <g fill="url(#scioFill)">
    <rect x="24" y="26" width="144" height="32" rx="5"/>
    <rect x="24" y="84" width="144" height="32" rx="5"/>
    <rect x="24" y="142" width="144" height="32" rx="5"/>
    <rect x="24" y="26" width="30" height="58" rx="5"/>
    <rect x="138" y="84" width="30" height="58" rx="5"/>
  </g>

  <!-- C -->
  <g fill="url(#scioFill)">
    <rect x="188" y="26" width="144" height="32" rx="5"/>
    <rect x="188" y="26" width="30" height="148" rx="5"/>
    <rect x="188" y="142" width="144" height="32" rx="5"/>
  </g>

  <!-- I -->
  <rect x="356" y="26" width="30" height="148" rx="5" fill="url(#scioFill)"/>

  <!-- O -->
  <path
    fill="url(#scioFill)"
    fill-rule="evenodd"
    d="M409 26h169v148H409zM439 58h109v84H439z"
  />

  <!-- red square accent -->
  <rect x="389" y="19" width="21" height="21" rx="3" fill="#ce0037"/>

  <!-- AUTOMATION -->
  <text
    x="430"
    y="214"
    text-anchor="middle"
    font-family="'Arial Narrow', 'Franklin Gothic Medium', Arial, sans-serif"
    font-size="56"
    font-style="italic"
    letter-spacing="1.3"
    fill="#ce0037"
  >
    AUTOMATION
  </text>
</svg>
